<?xml version="1.0" encoding="UTF-8"?>
<svg xmlns="http://www.w3.org/2000/svg" width="570" height="472" viewBox="0 0 570 472">
<rect width="100%" height="100%" fill="#f7f5f1"/>
<text x="20" y="28" font-family="Segoe UI, Arial, sans-serif" font-size="16" font-weight="600" fill="#1f2933">Dry sunny matrix — collected water after 30 s (kg)</text>
<text x="20" y="48" font-family="Segoe UI, Arial, sans-serif" font-size="11" fill="#52606d">30% RH · G=950 W/m² · battery SOC 90%</text>
<text x="134" y="58" text-anchor="middle" font-family="Segoe UI, Arial, sans-serif" font-size="12" fill="#334e68">1 kg</text>
<text x="222" y="58" text-anchor="middle" font-family="Segoe UI, Arial, sans-serif" font-size="12" fill="#334e68">2 kg</text>
<text x="310" y="58" text-anchor="middle" font-family="Segoe UI, Arial, sans-serif" font-size="12" fill="#334e68">3 kg</text>
<text x="398" y="58" text-anchor="middle" font-family="Segoe UI, Arial, sans-serif" font-size="12" fill="#334e68">4 kg</text>
<text x="486" y="58" text-anchor="middle" font-family="Segoe UI, Arial, sans-serif" font-size="12" fill="#334e68">5 kg</text>
<text x="78" y="100" text-anchor="end" font-family="Segoe UI, Arial, sans-serif" font-size="12" fill="#334e68">10 °C</text>
<rect x="94" y="74" width="80" height="44" rx="6" fill="#286EC8" stroke="#fff" stroke-width="1"/>
<text x="134" y="100" text-anchor="middle" font-family="Segoe UI, Arial, sans-serif" font-size="11" font-weight="600" fill="#102a43">0</text>
<rect x="182" y="74" width="80" height="44" rx="6" fill="#286EC8" stroke="#fff" stroke-width="1"/>
<text x="222" y="100" text-anchor="middle" font-family="Segoe UI, Arial, sans-serif" font-size="11" font-weight="600" fill="#102a43">0</text>
<rect x="270" y="74" width="80" height="44" rx="6" fill="#286EC8" stroke="#fff" stroke-width="1"/>
<text x="310" y="100" text-anchor="middle" font-family="Segoe UI, Arial, sans-serif" font-size="11" font-weight="600" fill="#102a43">0</text>
<rect x="358" y="74" width="80" height="44" rx="6" fill="#286EC8" stroke="#fff" stroke-width="1"/>
<text x="398" y="100" text-anchor="middle" font-family="Segoe UI, Arial, sans-serif" font-size="11" font-weight="600" fill="#102a43">0</text>
<rect x="446" y="74" width="80" height="44" rx="6" fill="#286EC8" stroke="#fff" stroke-width="1"/>
<text x="486" y="100" text-anchor="middle" font-family="Segoe UI, Arial, sans-serif" font-size="11" font-weight="600" fill="#102a43">0</text>
<text x="78" y="152" text-anchor="end" font-family="Segoe UI, Arial, sans-serif" font-size="12" fill="#334e68">15 °C</text>
<rect x="94" y="126" width="80" height="44" rx="6" fill="#286EC8" stroke="#fff" stroke-width="1"/>
<text x="134" y="152" text-anchor="middle" font-family="Segoe UI, Arial, sans-serif" font-size="11" font-weight="600" fill="#102a43">0</text>
<rect x="182" y="126" width="80" height="44" rx="6" fill="#286EC8" stroke="#fff" stroke-width="1"/>
<text x="222" y="152" text-anchor="middle" font-family="Segoe UI, Arial, sans-serif" font-size="11" font-weight="600" fill="#102a43">0</text>
<rect x="270" y="126" width="80" height="44" rx="6" fill="#286EC8" stroke="#fff" stroke-width="1"/>
<text x="310" y="152" text-anchor="middle" font-family="Segoe UI, Arial, sans-serif" font-size="11" font-weight="600" fill="#102a43">0</text>
<rect x="358" y="126" width="80" height="44" rx="6" fill="#286EC8" stroke="#fff" stroke-width="1"/>
<text x="398" y="152" text-anchor="middle" font-family="Segoe UI, Arial, sans-serif" font-size="11" font-weight="600" fill="#102a43">0</text>
<rect x="446" y="126" width="80" height="44" rx="6" fill="#286EC8" stroke="#fff" stroke-width="1"/>
<text x="486" y="152" text-anchor="middle" font-family="Segoe UI, Arial, sans-serif" font-size="11" font-weight="600" fill="#102a43">0</text>
<text x="78" y="204" text-anchor="end" font-family="Segoe UI, Arial, sans-serif" font-size="12" fill="#334e68">20 °C</text>
<rect x="94" y="178" width="80" height="44" rx="6" fill="#286EC8" stroke="#fff" stroke-width="1"/>
<text x="134" y="204" text-anchor="middle" font-family="Segoe UI, Arial, sans-serif" font-size="11" font-weight="600" fill="#102a43">0</text>
<rect x="182" y="178" width="80" height="44" rx="6" fill="#286EC8" stroke="#fff" stroke-width="1"/>
<text x="222" y="204" text-anchor="middle" font-family="Segoe UI, Arial, sans-serif" font-size="11" font-weight="600" fill="#102a43">0</text>
<rect x="270" y="178" width="80" height="44" rx="6" fill="#286EC8" stroke="#fff" stroke-width="1"/>
<text x="310" y="204" text-anchor="middle" font-family="Segoe UI, Arial, sans-serif" font-size="11" font-weight="600" fill="#102a43">0</text>
<rect x="358" y="178" width="80" height="44" rx="6" fill="#286EC8" stroke="#fff" stroke-width="1"/>
<text x="398" y="204" text-anchor="middle" font-family="Segoe UI, Arial, sans-serif" font-size="11" font-weight="600" fill="#102a43">0</text>
<rect x="446" y="178" width="80" height="44" rx="6" fill="#286EC8" stroke="#fff" stroke-width="1"/>
<text x="486" y="204" text-anchor="middle" font-family="Segoe UI, Arial, sans-serif" font-size="11" font-weight="600" fill="#102a43">0</text>
<text x="78" y="256" text-anchor="end" font-family="Segoe UI, Arial, sans-serif" font-size="12" fill="#334e68">25 °C</text>
<rect x="94" y="230" width="80" height="44" rx="6" fill="#2D70C4" stroke="#fff" stroke-width="1"/>
<text x="134" y="256" text-anchor="middle" font-family="Segoe UI, Arial, sans-serif" font-size="11" font-weight="600" fill="#102a43">0.000004</text>
<rect x="182" y="230" width="80" height="44" rx="6" fill="#286EC8" stroke="#fff" stroke-width="1"/>
<text x="222" y="256" text-anchor="middle" font-family="Segoe UI, Arial, sans-serif" font-size="11" font-weight="600" fill="#102a43">0</text>
<rect x="270" y="230" width="80" height="44" rx="6" fill="#286EC8" stroke="#fff" stroke-width="1"/>
<text x="310" y="256" text-anchor="middle" font-family="Segoe UI, Arial, sans-serif" font-size="11" font-weight="600" fill="#102a43">0</text>
<rect x="358" y="230" width="80" height="44" rx="6" fill="#286EC8" stroke="#fff" stroke-width="1"/>
<text x="398" y="256" text-anchor="middle" font-family="Segoe UI, Arial, sans-serif" font-size="11" font-weight="600" fill="#102a43">0</text>
<rect x="446" y="230" width="80" height="44" rx="6" fill="#286EC8" stroke="#fff" stroke-width="1"/>
<text x="486" y="256" text-anchor="middle" font-family="Segoe UI, Arial, sans-serif" font-size="11" font-weight="600" fill="#102a43">0</text>
<text x="78" y="308" text-anchor="end" font-family="Segoe UI, Arial, sans-serif" font-size="12" fill="#334e68">30 °C</text>
<rect x="94" y="282" width="80" height="44" rx="6" fill="#D0B949" stroke="#fff" stroke-width="1"/>
<text x="134" y="308" text-anchor="middle" font-family="Segoe UI, Arial, sans-serif" font-size="11" font-weight="600" fill="#102a43">0.000129</text>
<rect x="182" y="282" width="80" height="44" rx="6" fill="#5E869F" stroke="#fff" stroke-width="1"/>
<text x="222" y="308" text-anchor="middle" font-family="Segoe UI, Arial, sans-serif" font-size="11" font-weight="600" fill="#102a43">0.000042</text>
<rect x="270" y="282" width="80" height="44" rx="6" fill="#286EC8" stroke="#fff" stroke-width="1"/>
<text x="310" y="308" text-anchor="middle" font-family="Segoe UI, Arial, sans-serif" font-size="11" font-weight="600" fill="#102a43">0</text>
<rect x="358" y="282" width="80" height="44" rx="6" fill="#286EC8" stroke="#fff" stroke-width="1"/>
<text x="398" y="308" text-anchor="middle" font-family="Segoe UI, Arial, sans-serif" font-size="11" font-weight="600" fill="#102a43">0</text>
<rect x="446" y="282" width="80" height="44" rx="6" fill="#286EC8" stroke="#fff" stroke-width="1"/>
<text x="486" y="308" text-anchor="middle" font-family="Segoe UI, Arial, sans-serif" font-size="11" font-weight="600" fill="#102a43">0</text>
<text x="78" y="360" text-anchor="end" font-family="Segoe UI, Arial, sans-serif" font-size="12" fill="#334e68">35 °C</text>
<rect x="94" y="334" width="80" height="44" rx="6" fill="#DC3214" stroke="#fff" stroke-width="1"/>
<text x="134" y="360" text-anchor="middle" font-family="Segoe UI, Arial, sans-serif" font-size="11" font-weight="600" fill="#102a43">0.000307</text>
<rect x="182" y="334" width="80" height="44" rx="6" fill="#ECAC2C" stroke="#fff" stroke-width="1"/>
<text x="222" y="360" text-anchor="middle" font-family="Segoe UI, Arial, sans-serif" font-size="11" font-weight="600" fill="#102a43">0.000182</text>
<rect x="270" y="334" width="80" height="44" rx="6" fill="#7C9488" stroke="#fff" stroke-width="1"/>
<text x="310" y="360" text-anchor="middle" font-family="Segoe UI, Arial, sans-serif" font-size="11" font-weight="600" fill="#102a43">0.000065</text>
<rect x="358" y="334" width="80" height="44" rx="6" fill="#286EC8" stroke="#fff" stroke-width="1"/>
<text x="398" y="360" text-anchor="middle" font-family="Segoe UI, Arial, sans-serif" font-size="11" font-weight="600" fill="#102a43">0</text>
<rect x="446" y="334" width="80" height="44" rx="6" fill="#286EC8" stroke="#fff" stroke-width="1"/>
<text x="486" y="360" text-anchor="middle" font-family="Segoe UI, Arial, sans-serif" font-size="11" font-weight="600" fill="#102a43">0</text>
<text x="90" y="410" font-family="Segoe UI, Arial, sans-serif" font-size="11" fill="#52606d">Low</text>
<rect x="120" y="400" width="10" height="12" fill="#286EC8"/>
<rect x="130" y="400" width="10" height="12" fill="#3975BA"/>
<rect x="140" y="400" width="10" height="12" fill="#4A7DAD"/>
<rect x="150" y="400" width="10" height="12" fill="#5C85A0"/>
<rect x="160" y="400" width="10" height="12" fill="#6D8D93"/>
<rect x="170" y="400" width="10" height="12" fill="#7E9586"/>
<rect x="180" y="400" width="10" height="12" fill="#909C79"/>
<rect x="190" y="400" width="10" height="12" fill="#A1A46C"/>
<rect x="200" y="400" width="10" height="12" fill="#B3AC5F"/>
<rect x="210" y="400" width="10" height="12" fill="#C4B452"/>
<rect x="220" y="400" width="10" height="12" fill="#D5BC45"/>
<rect x="230" y="400" width="10" height="12" fill="#E7C438"/>
<rect x="240" y="400" width="10" height="12" fill="#EFC130"/>
<rect x="250" y="400" width="10" height="12" fill="#EDB42E"/>
<rect x="260" y="400" width="10" height="12" fill="#EBA72B"/>
<rect x="270" y="400" width="10" height="12" fill="#E99A28"/>
<rect x="280" y="400" width="10" height="12" fill="#E88D26"/>
<rect x="290" y="400" width="10" height="12" fill="#E68023"/>
<rect x="300" y="400" width="10" height="12" fill="#E47321"/>
<rect x="310" y="400" width="10" height="12" fill="#E2661E"/>
<rect x="320" y="400" width="10" height="12" fill="#E1591B"/>
<rect x="330" y="400" width="10" height="12" fill="#DF4C19"/>
<rect x="340" y="400" width="10" height="12" fill="#DD3F16"/>
<rect x="350" y="400" width="10" height="12" fill="#DC3214"/>
<text x="370" y="410" font-family="Segoe UI, Arial, sans-serif" font-size="11" fill="#52606d">High (kg)</text>
</svg>
