<svg xmlns="http://www.w3.org/2000/svg" width="640" height="360" viewBox="0 0 640 360">
<rect width="100%" height="100%" fill="#f8fafc"/>
<text x="20" y="28" font-family="Segoe UI, Arial, sans-serif" font-size="15" font-weight="600" fill="#1f2933">Full AWG silica mass matrix @ 35 °C / 50% RH — L/nap</text>
<line x1="64" y1="48" x2="64" y2="304" stroke="#94a3b8"/>
<line x1="64" y1="304" x2="616" y2="304" stroke="#94a3b8"/>
<line x1="64" y1="304" x2="616" y2="304" stroke="#e2e8f0"/>
<text x="56" y="308" text-anchor="end" font-family="Segoe UI, Arial, sans-serif" font-size="11" fill="#64748b">0</text>
<line x1="64" y1="240" x2="616" y2="240" stroke="#e2e8f0"/>
<text x="56" y="244" text-anchor="end" font-family="Segoe UI, Arial, sans-serif" font-size="11" fill="#64748b">0.131</text>
<line x1="64" y1="176" x2="616" y2="176" stroke="#e2e8f0"/>
<text x="56" y="180" text-anchor="end" font-family="Segoe UI, Arial, sans-serif" font-size="11" fill="#64748b">0.262</text>
<line x1="64" y1="112" x2="616" y2="112" stroke="#e2e8f0"/>
<text x="56" y="116" text-anchor="end" font-family="Segoe UI, Arial, sans-serif" font-size="11" fill="#64748b">0.394</text>
<line x1="64" y1="48" x2="616" y2="48" stroke="#e2e8f0"/>
<text x="56" y="52" text-anchor="end" font-family="Segoe UI, Arial, sans-serif" font-size="11" fill="#64748b">0.525</text>
<rect x="84.976" y="48" width="68.448" height="256" rx="4" fill="#E6783C"/>
<text x="119.2" y="322" text-anchor="middle" font-family="Segoe UI, Arial, sans-serif" font-size="12" fill="#334155">1</text>
<rect x="195.376" y="69.187" width="68.448" height="234.813" rx="4" fill="#D57B46"/>
<text x="229.6" y="322" text-anchor="middle" font-family="Segoe UI, Arial, sans-serif" font-size="12" fill="#334155">2</text>
<rect x="305.776" y="88.715" width="68.448" height="215.285" rx="4" fill="#C67E4F"/>
<text x="340" y="322" text-anchor="middle" font-family="Segoe UI, Arial, sans-serif" font-size="12" fill="#334155">3</text>
<rect x="416.176" y="103.172" width="68.448" height="200.828" rx="4" fill="#BB8156"/>
<text x="450.4" y="322" text-anchor="middle" font-family="Segoe UI, Arial, sans-serif" font-size="12" fill="#334155">4</text>
<rect x="526.576" y="114.069" width="68.448" height="189.931" rx="4" fill="#B2825B"/>
<text x="560.8" y="322" text-anchor="middle" font-family="Segoe UI, Arial, sans-serif" font-size="12" fill="#334155">5</text>
<text x="340" y="348" text-anchor="middle" font-family="Segoe UI, Arial, sans-serif" font-size="12" fill="#475569">Silica mass (kg)</text>
</svg>
